
<svg xmlns="http://www.w3.org/2000/svg" id="symbol-warning" viewBox="0 0 1000 1000"><title>Warning (Exclamation Mark) Icon</title><circle fill="#149FC6" cx="500" cy="500" r="500"></circle><path fill="#fff" d="M499.769,719.1677q24.80882,0,41.90243,17.059a58.26435,58.26435,0,0,1-.231,82.68453,57.331,57.331,0,0,1-41.67143,17.0474q-23.89062,0-41.20944-17.0474a55.86422,55.86422,0,0,1-17.3246-41.348q0-24.28909,17.0936-41.33649Q475.41062,719.17925,499.769,719.1677Zm-20.09653-48.04688L443.85676,252.9166q-1.88838-17.775-1.88261-22.45268,0-34.12946,15.03775-50.276t44.16617-16.14652q25.36321,0,41.10549,15.442,15.73073,15.43622,15.74228,41.62523,0,8.41975-2.3446,28.06585L518.11,671.12082Z"></path></svg>
